<svg width="64" height="64" viewBox="0 0 36 36" fill="none" xmlns="http://www.w3.org/2000/svg">
  <defs>
    <linearGradient id="dw-favicon-gradient" x1="3" y1="3" x2="33" y2="33" gradientUnits="userSpaceOnUse">
      <stop offset="0%" stop-color="#0b5ff0"/>
      <stop offset="55%" stop-color="#1a6cf6"/>
      <stop offset="100%" stop-color="#00c2ff"/>
    </linearGradient>
    <radialGradient id="dw-favicon-shine" cx="0" cy="0" r="1" gradientTransform="matrix(18 19 -19 18 11 8)" gradientUnits="userSpaceOnUse">
      <stop stop-color="#ffffff" stop-opacity="0.38"/>
      <stop offset="1" stop-color="#ffffff" stop-opacity="0"/>
    </radialGradient>
  </defs>
  <rect x="2" y="2" width="32" height="32" rx="10" fill="url(#dw-favicon-gradient)"/>
  <rect x="2" y="2" width="32" height="32" rx="10" fill="url(#dw-favicon-shine)"/>
  <rect x="2.75" y="2.75" width="30.5" height="30.5" rx="9.25" stroke="white" stroke-opacity="0.2" stroke-width="1.5"/>
  <path fill="#fff" fill-rule="evenodd" clip-rule="evenodd" d="M9 8.5h8.9c6 0 10.1 3.9 10.1 9.5s-4.1 9.5-10.1 9.5H9v-19Zm5.7 5v9h3.1c2.9 0 4.7-1.8 4.7-4.5s-1.8-4.5-4.7-4.5h-3.1Z"/>
  <path d="M16.1 23.1 18.6 18l2.4 5.1 4.3-9.2" stroke="#7ee7ff" stroke-width="1.7" stroke-linecap="round" stroke-linejoin="round"/>
  <circle cx="26.4" cy="12.1" r="1.35" fill="#b9f4ff"/>
</svg>
